<?xml version="1.0" encoding="UTF-8"?><svg id="Layer_2" xmlns="http://www.w3.org/2000/svg" viewBox="0 0 102.25 102.25"><defs><style>.cls-1{fill:none;}.cls-2{fill:#f5f3ef;}.cls-3{fill:#916b4b;}</style></defs><g id="Layer_2-2"><g><circle class="cls-2" cx="51.12" cy="51.12" r="51.12"/><g><path class="cls-1" d="m34.69,47.51c0,1.26,1.02,2.29,2.29,2.29h15.81c1.26,0,2.29-1.02,2.29-2.29s-1.02-2.29-2.29-2.29h-15.81c-1.26,0-2.29,1.02-2.29,2.29Z"/><polygon class="cls-3" points="59.54 26.04 50.42 37.81 66.46 37.81 77.38 26.04 59.54 26.04"/><polygon class="cls-3" points="34.38 26.04 23.46 37.81 40.26 37.81 49.38 26.04 34.38 26.04"/><polygon class="cls-3" points="67.66 38.46 67.66 80.53 78.79 68.36 78.79 26.04 67.66 38.46"/><path class="cls-3" d="m50.42,44.25h-10.24v-5.37h-16.72v42h43v-42h-16.04v5.37Zm4.65,3.26c0,1.26-1.02,2.29-2.29,2.29h-15.81c-1.26,0-2.29-1.02-2.29-2.29s1.02-2.29,2.29-2.29h15.81c1.26,0,2.29,1.02,2.29,2.29Z"/></g></g></g></svg>