<?xml version="1.0" encoding="UTF-8"?><svg id="Layer_2" xmlns="http://www.w3.org/2000/svg" viewBox="0 0 75.16 75.16"><defs><style>.cls-1{fill:#fff;}.cls-2{fill:#916b4b;}</style></defs><g id="Layer_2-2"><g><path class="cls-2" d="m37.58,0C16.82,0,0,16.82,0,37.58s16.82,37.58,37.58,37.58,37.58-16.82,37.58-37.58S58.33,0,37.58,0Zm19.48,23.1c-.23.36-.69.85-1.45,1.54-3.08,2.85-6.33,6.94-9.64,12.16-3.32,5.24-6,10.39-7.98,15.31-.79,1.96-1.35,3.22-1.71,3.86-.4.7-.96,1.25-1.67,1.64-.71.39-1.92.57-3.68.57-1.29,0-2.17-.09-2.71-.29-.56-.2-1.02-.51-1.39-.92-.33-.36-.87-1.13-1.65-2.34-1.06-1.63-2.5-3.45-4.29-5.42-1.23-1.35-1.83-2.48-1.83-3.44,0-1.28.7-2.45,2.08-3.48,1.33-.99,2.58-1.49,3.73-1.49s2.33.44,3.6,1.31c1,.68,1.96,1.62,2.88,2.79,1.31-2.7,2.63-5.23,3.92-7.54,1.44-2.58,3.15-5.3,5.1-8.1,1.95-2.81,3.59-4.92,4.86-6.26,1.32-1.39,2.26-2.22,2.89-2.56.63-.34,1.67-.62,3.18-.86,1.45-.23,2.68-.35,3.64-.35.74,0,1.35.24,1.82.72.46.47.7,1.06.7,1.73,0,.53-.13,1.01-.39,1.42Z"/><path class="cls-1" d="m54.93,19.24c-.96,0-2.19.12-3.64.35-1.51.24-2.55.53-3.18.86-.63.34-1.57,1.17-2.89,2.56-1.28,1.34-2.91,3.45-4.86,6.26-1.94,2.8-3.66,5.53-5.1,8.1-1.29,2.31-2.6,4.84-3.92,7.54-.92-1.17-1.89-2.1-2.88-2.79-1.27-.87-2.48-1.31-3.6-1.31s-2.4.5-3.73,1.49c-1.38,1.03-2.08,2.2-2.08,3.48,0,.96.6,2.09,1.83,3.44,1.79,1.96,3.23,3.78,4.29,5.42.79,1.21,1.33,1.98,1.65,2.34.37.41.83.71,1.39.92.53.19,1.42.29,2.71.29,1.77,0,2.97-.19,3.68-.57.71-.39,1.27-.94,1.67-1.64.36-.63.92-1.89,1.71-3.86,1.97-4.92,4.66-10.07,7.98-15.31,3.31-5.22,6.55-9.31,9.64-12.16.76-.69,1.22-1.18,1.45-1.54.26-.41.39-.88.39-1.42,0-.67-.24-1.25-.7-1.73-.47-.48-1.08-.72-1.82-.72Z"/></g></g></svg>