<?xml version="1.0" encoding="UTF-8"?><svg id="Layer_2" xmlns="http://www.w3.org/2000/svg" viewBox="0 0 44.99 57.82"><defs><style>.cls-1{fill:#916b4b;}</style></defs><g id="Layer_2-2"><g id="gYbZQW"><path class="cls-1" d="m17.24,40.64c0-3.01,0-5.8,0-8.59,0-8.92,0-17.84,0-26.76,0-2.34,1.25-4.16,3.36-4.95,2.13-.79,4.5-.19,5.97,1.52.88,1.03,1.19,2.23,1.19,3.57-.01,11.36,0,22.71,0,34.07,0,.32,0,.64,0,1.13.68-.64,1.24-1.15,1.78-1.66,2.12-2.02,4.23-4.05,6.34-6.07,1.53-1.46,3.33-1.95,5.37-1.39,3.79,1.04,5.02,5.56,2.22,8.32-2.98,2.94-6.04,5.8-9.07,8.69-2.67,2.55-5.34,5.1-8.02,7.65-2.32,2.21-5.36,2.21-7.69,0-5.61-5.33-11.22-10.67-16.83-16-2.25-2.14-2.47-5.02-.53-7.15,1.91-2.1,5.32-2.33,7.47-.37,2.27,2.05,4.44,4.22,6.66,6.33.55.52,1.1,1.03,1.79,1.68Z"/></g></g></svg>